<svg width="37" height="37" viewBox="0 0 37 37" fill="none" xmlns="http://www.w3.org/2000/svg">
<circle cx="18.4438" cy="18.4438" r="17.9438" fill="white" stroke="white"/>
<g clip-path="url(#clip0_1704_98)">
<path d="M18.8217 10.0431C21.4365 10.0431 21.7462 10.0546 22.7745 10.1004C23.7302 10.1425 24.2463 10.3031 24.5904 10.4369C25.0453 10.6127 25.3741 10.8268 25.7143 11.167C26.0583 11.5111 26.2686 11.836 26.4445 12.2909C26.5783 12.635 26.7388 13.1549 26.7809 14.1068C26.8267 15.139 26.8382 15.4486 26.8382 18.0596C26.8382 20.6745 26.8267 20.9841 26.7809 22.0125C26.7388 22.9682 26.5783 23.4843 26.4445 23.8283C26.2686 24.2832 26.0545 24.612 25.7143 24.9522C25.3702 25.2963 25.0453 25.5066 24.5904 25.6824C24.2463 25.8162 23.7264 25.9768 22.7745 26.0188C21.7423 26.0647 21.4327 26.0762 18.8217 26.0762C16.2068 26.0762 15.8972 26.0647 14.8688 26.0188C13.9131 25.9768 13.397 25.8162 13.053 25.6824C12.5981 25.5066 12.2693 25.2925 11.9291 24.9522C11.585 24.6082 11.3747 24.2832 11.1989 23.8283C11.0651 23.4843 10.9045 22.9644 10.8625 22.0125C10.8166 20.9803 10.8051 20.6706 10.8051 18.0596C10.8051 15.4448 10.8166 15.1351 10.8625 14.1068C10.9045 13.1511 11.0651 12.635 11.1989 12.2909C11.3747 11.836 11.5888 11.5073 11.9291 11.167C12.2731 10.823 12.5981 10.6127 13.053 10.4369C13.397 10.3031 13.9169 10.1425 14.8688 10.1004C15.8972 10.0546 16.2068 10.0431 18.8217 10.0431ZM18.8217 8.28076C16.1648 8.28076 15.8322 8.29223 14.7886 8.3381C13.7487 8.38398 13.0339 8.55218 12.4146 8.79302C11.7685 9.04533 11.2218 9.37792 10.679 9.92459C10.1323 10.4674 9.79973 11.0141 9.54742 11.6563C9.30658 12.2795 9.13837 12.9905 9.0925 14.0303C9.04662 15.0778 9.03516 15.4104 9.03516 18.0673C9.03516 20.7242 9.04662 21.0568 9.0925 22.1004C9.13837 23.1402 9.30658 23.8551 9.54742 24.4744C9.79973 25.1205 10.1323 25.6671 10.679 26.21C11.2218 26.7528 11.7685 27.0892 12.4107 27.3377C13.0339 27.5785 13.7449 27.7468 14.7847 27.7926C15.8284 27.8385 16.161 27.85 18.8179 27.85C21.4747 27.85 21.8073 27.8385 22.851 27.7926C23.8908 27.7468 24.6057 27.5785 25.225 27.3377C25.8672 27.0892 26.4139 26.7528 26.9567 26.21C27.4996 25.6671 27.836 25.1205 28.0845 24.4782C28.3253 23.8551 28.4935 23.144 28.5394 22.1042C28.5853 21.0606 28.5967 20.728 28.5967 18.0711C28.5967 15.4142 28.5853 15.0816 28.5394 14.038C28.4935 12.9982 28.3253 12.2833 28.0845 11.664C27.8436 11.0141 27.511 10.4674 26.9644 9.92459C26.4215 9.38174 25.8748 9.04533 25.2326 8.79685C24.6095 8.55601 23.8984 8.3878 22.8586 8.34193C21.8111 8.29223 21.4786 8.28076 18.8217 8.28076Z" fill="black"/>
<path d="M18.82 13.04C16.0446 13.04 13.793 15.2917 13.793 18.0671C13.793 20.8425 16.0446 23.0942 18.82 23.0942C21.5954 23.0942 23.8471 20.8425 23.8471 18.0671C23.8471 15.2917 21.5954 13.04 18.82 13.04ZM18.82 21.328C17.0195 21.328 15.5591 19.8677 15.5591 18.0671C15.5591 16.2665 17.0195 14.8062 18.82 14.8062C20.6206 14.8062 22.0809 16.2665 22.0809 18.0671C22.0809 19.8677 20.6206 21.328 18.82 21.328Z" fill="black"/>
<path d="M25.2222 12.8416C25.2222 13.4915 24.6947 14.0152 24.0486 14.0152C23.3987 14.0152 22.875 13.4877 22.875 12.8416C22.875 12.1917 23.4026 11.668 24.0486 11.668C24.6947 11.668 25.2222 12.1955 25.2222 12.8416Z" fill="black"/>
</g>
<defs>
<clipPath id="clip0_1704_98">
<rect width="19.573" height="19.573" fill="white" transform="translate(9.03516 8.28076)"/>
</clipPath>
</defs>
</svg>
