<svg width="37" height="37" viewBox="0 0 37 37" fill="none" xmlns="http://www.w3.org/2000/svg">
<circle cx="18.4438" cy="18.4438" r="17.9438" stroke="white"/>
<path fill-rule="evenodd" clip-rule="evenodd" d="M13.2592 9.21375C14.0444 9.57606 14.4471 10.1939 14.4471 11.0365C14.4471 12.2658 13.2695 13.1867 12.0475 12.9132C10.1552 12.4895 9.99947 9.81877 11.829 9.16877C12.372 8.97588 12.7707 8.98844 13.2592 9.21375ZM24.5957 14.4734C25.8037 14.8452 26.546 15.7276 26.9116 17.2263C27.0523 17.8032 27.083 18.5727 27.0912 21.7305L27.1009 25.5389L25.4223 25.5672L23.7437 25.5955L23.7405 22.7366C23.7388 21.1642 23.6928 19.5354 23.6383 19.117C23.4697 17.8231 23.029 17.3395 21.9607 17.2755C21.0756 17.2225 20.4973 17.5257 20.131 18.2348L19.8701 18.7393L19.838 22.1648L19.8059 25.5903H18.1078H16.4097V20.0836V14.5768H18.0625H19.7152V15.3128V16.0487L20.0243 15.6235C20.8922 14.4295 22.8517 13.9366 24.5957 14.4734ZM14.2156 20.0578L14.1888 25.5389L12.5103 25.5672L10.8317 25.5955V20.0862V14.5768H12.537H14.2424L14.2156 20.0578Z" fill="white"/>
</svg>
