<svg width="37" height="37" viewBox="0 0 37 37" fill="none" xmlns="http://www.w3.org/2000/svg">
<circle cx="18.4438" cy="18.4438" r="17.9438" fill="white" stroke="white"/>
<path fill-rule="evenodd" clip-rule="evenodd" d="M17.8835 8.31055C14.8092 8.63764 12.4228 10.2617 11.213 12.8504C10.7578 13.8243 10.5798 14.5655 10.5458 15.6294C10.52 16.4398 10.5653 16.9176 10.7329 17.6001C11.0526 18.9023 11.7092 19.8292 12.6782 20.3464C13.1705 20.6092 13.3927 20.5535 13.5259 20.1338C13.665 19.6958 13.8219 18.9552 13.7971 18.8535C13.7835 18.7974 13.6702 18.613 13.5452 18.4436C12.8686 17.5262 12.6723 16.4208 12.934 15.002C13.1501 13.8302 13.6228 12.9084 14.4461 12.053C15.0978 11.3759 15.7259 10.9713 16.579 10.679C17.6561 10.3101 18.9075 10.2426 20.0049 10.4944C21.8144 10.9095 22.9974 12.1073 23.3812 13.9128C23.472 14.34 23.4832 15.7625 23.4007 16.3848C23.0882 18.741 22.1725 20.4767 20.8992 21.126C19.5583 21.8098 18.0856 21.1794 17.8838 19.8352C17.8175 19.3937 17.8708 19.1406 18.4373 17.2059C18.8368 15.8414 18.9325 15.3843 18.9366 14.8192C18.9405 14.2912 18.8367 13.8961 18.6156 13.5974C18.4188 13.3314 18.3464 13.2706 18.0433 13.1172C17.8001 12.9941 17.7571 12.9859 17.3643 12.988C16.8623 12.9906 16.6132 13.075 16.2343 13.371C15.7559 13.7446 15.4082 14.3228 15.2175 15.062C15.1298 15.402 15.1151 15.5478 15.1127 16.0964C15.1099 16.7824 15.1389 16.9863 15.3334 17.6446L15.4561 18.0597L14.6895 21.4114C14.2679 23.2549 13.8972 24.9127 13.8659 25.0956C13.7522 25.759 13.7115 26.749 13.7628 27.6022C13.8214 28.5769 13.9095 29.2831 13.978 29.328C14.1003 29.408 14.178 29.3499 14.4419 28.9815C15.3138 27.7638 15.9062 26.6584 16.2359 25.634C16.3016 25.4301 16.5306 24.5495 16.7448 23.6771C16.9591 22.8047 17.1425 22.0818 17.1525 22.0706C17.1624 22.0595 17.1893 22.0873 17.2122 22.1324C17.303 22.3115 17.8794 22.8397 18.1648 23.0056C18.5205 23.2123 19.0696 23.4078 19.4816 23.4745C20.1492 23.5826 21.2279 23.448 21.9977 23.1606C23.428 22.6265 24.6781 21.3843 25.4375 19.7425C26.0165 18.4908 26.3015 17.1697 26.3396 15.5608C26.358 14.7824 26.3503 14.613 26.2759 14.164C26.0429 12.7564 25.431 11.5547 24.4171 10.5129C23.8363 9.91614 23.3479 9.53916 22.7139 9.19836C21.9677 8.7972 21.2467 8.5477 20.3693 8.38698C19.8378 8.28958 18.4746 8.24768 17.8835 8.31055Z" fill="black"/>
</svg>
