<svg width="37" height="37" viewBox="0 0 37 37" fill="none" xmlns="http://www.w3.org/2000/svg">
<circle cx="18.4438" cy="18.4438" r="17.9438" stroke="white"/>
<path d="M26.7831 25.26C26.5122 25.7336 26.0139 26 25.5003 26C25.2601 26 25.0122 25.9407 24.7847 25.8158C22.6791 24.6502 20.3843 23.9362 17.9593 23.6937C15.5291 23.4532 13.1295 23.6967 10.8246 24.4234C10.0554 24.6658 9.22745 24.2462 8.98213 23.4855C8.73426 22.7236 9.161 21.9089 9.93274 21.6652C12.621 20.8172 15.4243 20.5288 18.2557 20.8129C21.0819 21.097 23.76 21.9296 26.2183 23.29C26.9262 23.6791 27.1791 24.5616 26.7831 25.26ZM28.8018 20.2021C28.5412 20.6973 28.0301 20.9814 27.5011 20.9814C27.2712 20.9814 27.0412 20.9294 26.8239 20.8172C24.2353 19.486 21.4397 18.6617 18.5087 18.3681C15.5546 18.0696 12.6287 18.3297 9.80752 19.133C9.02812 19.3515 8.21551 18.9115 7.99319 18.1422C7.76832 17.3742 8.21805 16.5719 8.99489 16.3501C12.1789 15.4436 15.4805 15.1532 18.8051 15.4862C22.1067 15.8183 25.2601 16.7468 28.1809 18.2495C28.8964 18.6191 29.1775 19.4931 28.8018 20.2021ZM29.5327 15.9941C29.3129 15.9941 29.0906 15.9452 28.8785 15.8422C25.8069 14.3299 22.5028 13.3881 19.0555 13.0427C15.6032 12.694 12.1687 12.9635 8.84413 13.84C8.06218 14.0448 7.25978 13.5869 7.05023 12.8136C6.84069 12.0413 7.30579 11.2473 8.0903 11.0412C11.7573 10.0743 15.5495 9.77989 19.3545 10.1619C23.1544 10.5416 26.7984 11.5813 30.1869 13.2498C30.9126 13.6066 31.2065 14.4768 30.8462 15.1918C30.5906 15.7007 30.0719 15.9941 29.5327 15.9941Z" fill="white"/>
</svg>
