<svg width="38" height="38" viewBox="0 0 38 38" fill="none" xmlns="http://www.w3.org/2000/svg">
<circle cx="19.3305" cy="19.1831" r="18.4438" fill="white"/>
<path d="M27.6698 25.9993C27.3989 26.4728 26.9006 26.7393 26.387 26.7393C26.1468 26.7393 25.8989 26.68 25.6715 26.5551C23.5658 25.3894 21.2711 24.6754 18.846 24.4329C16.4158 24.1925 14.0163 24.436 11.7113 25.1626C10.9421 25.4051 10.1142 24.9855 9.86885 24.2248C9.62098 23.4628 10.0477 22.6482 10.8195 22.4044C13.5077 21.5564 16.311 21.268 19.1424 21.5521C21.9687 21.8362 24.6467 22.6688 27.105 24.0293C27.8129 24.4183 28.0659 25.3009 27.6698 25.9993ZM29.6885 20.9413C29.4279 21.4366 28.9168 21.7207 28.3879 21.7207C28.1579 21.7207 27.9279 21.6687 27.7107 21.5564C25.122 20.2253 22.3264 19.401 19.3954 19.1073C16.4413 18.8088 13.5154 19.069 10.6942 19.8723C9.91484 20.0908 9.10223 19.6508 8.87991 18.8815C8.65504 18.1135 9.10477 17.3112 9.88161 17.0894C13.0656 16.1829 16.3672 15.8925 19.6918 16.2255C22.9934 16.5575 26.1468 17.486 29.0676 18.9887C29.7831 19.3584 30.0642 20.2323 29.6885 20.9413ZM30.4194 16.7334C30.1996 16.7334 29.9773 16.6844 29.7652 16.5815C26.6936 15.0692 23.3895 14.1273 19.9422 13.7819C16.4899 13.4333 13.0554 13.7027 9.73085 14.5792C8.9489 14.7841 8.14649 14.3262 7.93695 13.5528C7.72741 12.7805 8.19251 11.9865 8.97702 11.7804C12.644 10.8136 16.4362 10.5191 20.2412 10.9011C24.0411 11.2809 27.6851 12.3206 31.0736 13.9891C31.7993 14.3458 32.0932 15.216 31.7329 15.9311C31.4773 16.44 30.9586 16.7334 30.4194 16.7334Z" fill="black"/>
</svg>
