<svg width="38" height="38" viewBox="0 0 38 38" fill="none" xmlns="http://www.w3.org/2000/svg">
<circle cx="19.3305" cy="19.1831" r="18.4438" fill="white"/>
<g clip-path="url(#clip0_1914_38)">
<path d="M16.1785 27.8639C23.7238 27.8639 27.852 21.6111 27.852 16.1904C27.852 16.0147 27.848 15.835 27.8402 15.6592C28.6433 15.0784 29.3363 14.3591 29.8867 13.535C29.1388 13.8677 28.3448 14.085 27.5316 14.1795C28.3878 13.6663 29.0288 12.8601 29.3359 11.9104C28.5305 12.3877 27.6497 12.7244 26.7313 12.9061C26.1124 12.2485 25.2942 11.8132 24.4031 11.6673C23.512 11.5214 22.5977 11.6731 21.8015 12.099C21.0053 12.5248 20.3716 13.2011 19.9983 14.0233C19.625 14.8455 19.5329 15.7677 19.7363 16.6475C18.1055 16.5656 16.51 16.142 15.0534 15.404C13.5967 14.666 12.3115 13.6301 11.2809 12.3635C10.7571 13.2666 10.5968 14.3353 10.8326 15.3523C11.0684 16.3693 11.6826 17.2584 12.5504 17.8389C11.8989 17.8182 11.2617 17.6428 10.6914 17.3272V17.3779C10.6908 18.3257 11.0185 19.2444 11.6186 19.9779C12.2188 20.7114 13.0545 21.2144 13.9836 21.4014C13.3801 21.5665 12.7467 21.5906 12.1324 21.4717C12.3946 22.2868 12.9047 22.9996 13.5915 23.5108C14.2784 24.022 15.1077 24.3061 15.9637 24.3233C14.5104 25.4648 12.7152 26.084 10.8672 26.0811C10.5395 26.0806 10.2121 26.0605 9.88672 26.0209C11.7641 27.2254 13.948 27.865 16.1785 27.8639Z" fill="black"/>
</g>
<defs>
<clipPath id="clip0_1914_38">
<rect width="20" height="20" fill="white" transform="translate(9.88672 9.73926)"/>
</clipPath>
</defs>
</svg>
