<svg width="37" height="37" viewBox="0 0 37 37" fill="none" xmlns="http://www.w3.org/2000/svg">
<circle cx="18.4438" cy="18.4438" r="17.9438" stroke="white"/>
<g clip-path="url(#clip0_1914_36)">
<path d="M15.2918 27.1251C22.8371 27.1251 26.9652 20.8724 26.9652 15.4517C26.9652 15.2759 26.9613 15.0962 26.9535 14.9204C27.7566 14.3397 28.4496 13.6203 29 12.7962C28.2521 13.129 27.458 13.3463 26.6449 13.4407C27.5011 12.9275 28.1421 12.1213 28.4492 11.1716C27.6438 11.6489 26.763 11.9856 25.8445 12.1673C25.2257 11.5098 24.4075 11.0744 23.5164 10.9285C22.6253 10.7826 21.711 10.9343 20.9148 11.3602C20.1186 11.7861 19.4848 12.4624 19.1115 13.2845C18.7382 14.1067 18.6462 15.029 18.8496 15.9087C17.2187 15.8269 15.6233 15.4032 14.1667 14.6652C12.71 13.9272 11.4247 12.8913 10.3941 11.6247C9.87033 12.5278 9.71005 13.5965 9.94586 14.6135C10.1817 15.6306 10.7959 16.5197 11.6637 17.1001C11.0122 17.0794 10.375 16.904 9.80469 16.5884V16.6392C9.8041 17.5869 10.1317 18.5056 10.7319 19.2391C11.3321 19.9726 12.1678 20.4756 13.0969 20.6626C12.4934 20.8277 11.86 20.8518 11.2457 20.7329C11.5079 21.548 12.018 22.2609 12.7048 22.7721C13.3916 23.2833 14.2209 23.5673 15.077 23.5845C13.6237 24.726 11.8285 25.3452 9.98047 25.3423C9.65274 25.3418 9.32533 25.3217 9 25.2821C10.8774 26.4866 13.0613 27.1263 15.2918 27.1251Z" fill="white"/>
</g>
<defs>
<clipPath id="clip0_1914_36">
<rect width="20" height="20" fill="white" transform="translate(9 9)"/>
</clipPath>
</defs>
</svg>
